<?xml version="1.0" encoding="UTF-8" standalone="no"?>
<svg
   xmlns:dc="http://purl.org/dc/elements/1.1/"
   xmlns:cc="http://creativecommons.org/ns#"
   xmlns:rdf="http://www.w3.org/1999/02/22-rdf-syntax-ns#"
   xmlns:svg="http://www.w3.org/2000/svg"
   xmlns="http://www.w3.org/2000/svg"
   xmlns:sodipodi="http://sodipodi.sourceforge.net/DTD/sodipodi-0.dtd"
   xmlns:inkscape="http://www.inkscape.org/namespaces/inkscape"
   fill-opacity="0"
   color-rendering="auto"
   color-interpolation="auto"
   stroke="rgb(0,0,0)"
   text-rendering="auto"
   stroke-linecap="square"
   width="598"
   stroke-miterlimit="10"
   stroke-opacity="0"
   shape-rendering="auto"
   fill="rgb(0,0,0)"
   stroke-dasharray="none"
   font-weight="normal"
   stroke-width="1"
   height="378"
   font-family="'Dialog'"
   font-style="normal"
   stroke-linejoin="miter"
   font-size="12"
   stroke-dashoffset="0"
   image-rendering="auto"
   id="svg2"
   version="1.1"
   inkscape:version="0.48.5 r10040"
   sodipodi:docname="tables_defaultlistmodeltablemodel-usecases.svg">
  <metadata
     id="metadata393">
    <rdf:RDF>
      <cc:Work
         rdf:about="">
        <dc:format>image/svg+xml</dc:format>
        <dc:type
           rdf:resource="http://purl.org/dc/dcmitype/StillImage" />
      </cc:Work>
    </rdf:RDF>
  </metadata>
  <sodipodi:namedview
     pagecolor="#ffffff"
     bordercolor="#666666"
     borderopacity="1"
     objecttolerance="10"
     gridtolerance="10"
     guidetolerance="10"
     inkscape:pageopacity="0"
     inkscape:pageshadow="2"
     inkscape:window-width="640"
     inkscape:window-height="480"
     id="namedview391"
     showgrid="false"
     inkscape:zoom="0.50501672"
     inkscape:cx="299"
     inkscape:cy="189"
     inkscape:window-x="0"
     inkscape:window-y="27"
     inkscape:window-maximized="0"
     inkscape:current-layer="g5" />
  <!--Generated by the Batik Graphics2D SVG Generator-->
  <defs
     id="genericDefs" />
  <g
     id="g5">
    <defs
       id="defs1">
      <clipPath
         clipPathUnits="userSpaceOnUse"
         id="clipPath1">
        <path
           d="M-7 -7 L41 -7 L41 71 L-7 71 L-7 -7 Z"
           id="path9" />
      </clipPath>
      <clipPath
         clipPathUnits="userSpaceOnUse"
         id="clipPath2">
        <path
           d="M-7 -7 L91 -7 L91 51 L-7 51 L-7 -7 Z"
           id="path12" />
      </clipPath>
      <clipPath
         clipPathUnits="userSpaceOnUse"
         id="clipPath3">
        <path
           d="M0 0 L0 40 L80 40 L80 0 Z"
           id="path15" />
      </clipPath>
      <clipPath
         clipPathUnits="userSpaceOnUse"
         id="clipPath4">
        <path
           d="M-7 -7 L102 -7 L102 51 L-7 51 L-7 -7 Z"
           id="path18" />
      </clipPath>
      <clipPath
         clipPathUnits="userSpaceOnUse"
         id="clipPath5">
        <path
           d="M0 0 L0 40 L91 40 L91 0 Z"
           id="path21" />
      </clipPath>
      <clipPath
         clipPathUnits="userSpaceOnUse"
         id="clipPath6">
        <path
           d="M-7 -7 L97 -7 L97 51 L-7 51 L-7 -7 Z"
           id="path24" />
      </clipPath>
      <clipPath
         clipPathUnits="userSpaceOnUse"
         id="clipPath7">
        <path
           d="M0 0 L0 40 L86 40 L86 0 Z"
           id="path27" />
      </clipPath>
      <clipPath
         clipPathUnits="userSpaceOnUse"
         id="clipPath8">
        <path
           d="M-7 -7 L79 -7 L79 71 L-7 71 L-7 -7 Z"
           id="path30" />
      </clipPath>
      <clipPath
         clipPathUnits="userSpaceOnUse"
         id="clipPath9">
        <path
           d="M0 0 L0 60 L68 60 L68 0 Z"
           id="path33" />
      </clipPath>
      <clipPath
         clipPathUnits="userSpaceOnUse"
         id="clipPath10">
        <path
           d="M-7 -7 L118 -7 L118 51 L-7 51 L-7 -7 Z"
           id="path36" />
      </clipPath>
      <clipPath
         clipPathUnits="userSpaceOnUse"
         id="clipPath11">
        <path
           d="M0 0 L0 40 L107 40 L107 0 Z"
           id="path39" />
      </clipPath>
      <clipPath
         clipPathUnits="userSpaceOnUse"
         id="clipPath12">
        <path
           d="M-7 -7 L105 -7 L105 71 L-7 71 L-7 -7 Z"
           id="path42" />
      </clipPath>
      <clipPath
         clipPathUnits="userSpaceOnUse"
         id="clipPath13">
        <path
           d="M0 0 L0 60 L94 60 L94 0 Z"
           id="path45" />
      </clipPath>
      <clipPath
         clipPathUnits="userSpaceOnUse"
         id="clipPath14">
        <path
           d="M-7 -7 L104 -7 L104 51 L-7 51 L-7 -7 Z"
           id="path48" />
      </clipPath>
      <clipPath
         clipPathUnits="userSpaceOnUse"
         id="clipPath15">
        <path
           d="M0 0 L0 40 L93 40 L93 0 Z"
           id="path51" />
      </clipPath>
      <clipPath
         clipPathUnits="userSpaceOnUse"
         id="clipPath16">
        <path
           d="M-48 -15 L96 -15 L96 30 L-48 30 L-48 -15 Z"
           id="path54" />
      </clipPath>
      <clipPath
         clipPathUnits="userSpaceOnUse"
         id="clipPath17">
        <path
           d="M0 0 L226 0 L226 104 L0 104 L0 0 Z"
           id="path57" />
      </clipPath>
      <clipPath
         clipPathUnits="userSpaceOnUse"
         id="clipPath18">
        <path
           d="M0 0 L209 0 L209 174 L0 174 L0 0 Z"
           id="path60" />
      </clipPath>
      <clipPath
         clipPathUnits="userSpaceOnUse"
         id="clipPath19">
        <path
           d="M0 0 L192 0 L192 104 L0 104 L0 0 Z"
           id="path63" />
      </clipPath>
      <clipPath
         clipPathUnits="userSpaceOnUse"
         id="clipPath20">
        <path
           d="M0 0 L168 0 L168 104 L0 104 L0 0 Z"
           id="path66" />
      </clipPath>
      <clipPath
         clipPathUnits="userSpaceOnUse"
         id="clipPath21">
        <path
           d="M0 0 L104 0 L104 230 L0 230 L0 0 Z"
           id="path69" />
      </clipPath>
      <clipPath
         clipPathUnits="userSpaceOnUse"
         id="clipPath22">
        <path
           d="M0 0 L371 0 L371 240 L0 240 L0 0 Z"
           id="path72" />
      </clipPath>
      <clipPath
         clipPathUnits="userSpaceOnUse"
         id="clipPath23">
        <path
           d="M0 0 L215 0 L215 157 L0 157 L0 0 Z"
           id="path75" />
      </clipPath>
      <clipPath
         clipPathUnits="userSpaceOnUse"
         id="clipPath24">
        <path
           d="M0 0 L104 0 L104 147 L0 147 L0 0 Z"
           id="path78" />
      </clipPath>
      <clipPath
         clipPathUnits="userSpaceOnUse"
         id="clipPath25">
        <path
           d="M0 0 L183 0 L183 245 L0 245 L0 0 Z"
           id="path81" />
      </clipPath>
      <clipPath
         clipPathUnits="userSpaceOnUse"
         id="clipPath26">
        <path
           d="M-96 -14 L192 -14 L192 28 L-96 28 L-96 -14 Z"
           id="path84" />
      </clipPath>
      <clipPath
         clipPathUnits="userSpaceOnUse"
         id="clipPath27">
        <path
           d="M-97 -14 L194 -14 L194 28 L-97 28 L-97 -14 Z"
           id="path87" />
      </clipPath>
    </defs>
    <g
       fill="white"
       text-rendering="geometricPrecision"
       fill-opacity="1"
       stroke-opacity="1"
       stroke="white"
       id="g89">
      <rect
         x="0"
         width="598"
         height="378"
         y="0"
         stroke="none"
         id="rect91" />
    </g>
    <g
       transform="translate(11,75)"
       fill-opacity="1"
       fill="white"
       text-rendering="geometricPrecision"
       font-family="'DejaVu Sans'"
       stroke="white"
       stroke-opacity="1"
       id="g93">
      <circle
         r="7.5"
         clip-path="url(#clipPath1)"
         cx="14.5"
         cy="7.5"
         stroke="none"
         id="circle95"
         d="M 22,7.5 C 22,11.642136 18.642136,15 14.5,15 10.357864,15 7,11.642136 7,7.5 7,3.3578644 10.357864,0 14.5,0 18.642136,0 22,3.3578644 22,7.5 z" />
    </g>
    <g
       stroke-linecap="butt"
       transform="translate(11,75)"
       fill-opacity="1"
       fill="black"
       text-rendering="geometricPrecision"
       font-family="'DejaVu Sans'"
       stroke-linejoin="round"
       stroke="black"
       stroke-opacity="1"
       stroke-miterlimit="0"
       id="g97">
      <circle
         fill="none"
         r="7.5"
         clip-path="url(#clipPath1)"
         cx="14.5"
         cy="7.5"
         id="circle99"
         d="M 22,7.5 C 22,11.642136 18.642136,15 14.5,15 10.357864,15 7,11.642136 7,7.5 7,3.3578644 10.357864,0 14.5,0 18.642136,0 22,3.3578644 22,7.5 z" />
      <line
         y2="40"
         fill="none"
         x1="15"
         clip-path="url(#clipPath1)"
         x2="15"
         y1="15"
         id="line101" />
      <line
         y2="24"
         fill="none"
         x1="0"
         clip-path="url(#clipPath1)"
         x2="30"
         y1="24"
         id="line103" />
      <line
         y2="60"
         fill="none"
         x1="15"
         clip-path="url(#clipPath1)"
         x2="0"
         y1="40"
         id="line105" />
      <line
         y2="60"
         fill="none"
         x1="15"
         clip-path="url(#clipPath1)"
         x2="30"
         y1="40"
         id="line107" />
    </g>
    <g
       transform="translate(163,85)"
       fill-opacity="1"
       fill="white"
       text-rendering="geometricPrecision"
       font-family="'DejaVu Sans'"
       stroke="white"
       stroke-opacity="1"
       id="g109">
      <ellipse
         rx="40"
         ry="20"
         clip-path="url(#clipPath2)"
         cx="40"
         cy="20"
         stroke="none"
         id="ellipse111"
         d="M 80,20 C 80,31.045695 62.09139,40 40,40 17.90861,40 0,31.045695 0,20 0,8.954305 17.90861,0 40,0 62.09139,0 80,8.954305 80,20 z" />
    </g>
    <g
       stroke-linecap="butt"
       transform="translate(163,85)"
       fill-opacity="1"
       fill="black"
       text-rendering="geometricPrecision"
       font-family="'DejaVu Sans'"
       stroke-linejoin="round"
       stroke="black"
       stroke-opacity="1"
       stroke-miterlimit="0"
       id="g113">
      <ellipse
         rx="40"
         fill="none"
         ry="20"
         clip-path="url(#clipPath2)"
         cx="40"
         cy="20"
         id="ellipse115"
         d="M 80,20 C 80,31.045695 62.09139,40 40,40 17.90861,40 0,31.045695 0,20 0,8.954305 17.90861,0 40,0 62.09139,0 80,8.954305 80,20 z" />
    </g>
    <g
       transform="translate(163,85)"
       fill-opacity="1"
       fill="black"
       text-rendering="geometricPrecision"
       font-family="'DejaVu Sans'"
       stroke="black"
       stroke-opacity="1"
       id="g117">
      <text
         x="12"
         xml:space="preserve"
         y="24"
         clip-path="url(#clipPath3)"
         stroke="none"
         id="text119">Add Item</text>
    </g>
    <g
       transform="translate(158,168)"
       fill-opacity="1"
       fill="white"
       text-rendering="geometricPrecision"
       font-family="'DejaVu Sans'"
       stroke="white"
       stroke-opacity="1"
       id="g121">
      <ellipse
         rx="45.5"
         ry="20"
         clip-path="url(#clipPath4)"
         cx="45.5"
         cy="20"
         stroke="none"
         id="ellipse123"
         d="M 91,20 C 91,31.045695 70.628956,40 45.5,40 20.371044,40 0,31.045695 0,20 0,8.954305 20.371044,0 45.5,0 70.628956,0 91,8.954305 91,20 z" />
    </g>
    <g
       stroke-linecap="butt"
       transform="translate(158,168)"
       fill-opacity="1"
       fill="black"
       text-rendering="geometricPrecision"
       font-family="'DejaVu Sans'"
       stroke-linejoin="round"
       stroke="black"
       stroke-opacity="1"
       stroke-miterlimit="0"
       id="g125">
      <ellipse
         rx="45.5"
         fill="none"
         ry="20"
         clip-path="url(#clipPath4)"
         cx="45.5"
         cy="20"
         id="ellipse127"
         d="M 91,20 C 91,31.045695 70.628956,40 45.5,40 20.371044,40 0,31.045695 0,20 0,8.954305 20.371044,0 45.5,0 70.628956,0 91,8.954305 91,20 z" />
    </g>
    <g
       transform="translate(158,168)"
       fill-opacity="1"
       fill="black"
       text-rendering="geometricPrecision"
       font-family="'DejaVu Sans'"
       stroke="black"
       stroke-opacity="1"
       id="g129">
      <text
         x="4"
         xml:space="preserve"
         y="24"
         clip-path="url(#clipPath5)"
         stroke="none"
         id="text131">Remove Item</text>
    </g>
    <g
       transform="translate(158,251)"
       fill-opacity="1"
       fill="white"
       text-rendering="geometricPrecision"
       font-family="'DejaVu Sans'"
       stroke="white"
       stroke-opacity="1"
       id="g133">
      <ellipse
         rx="40"
         ry="20"
         clip-path="url(#clipPath2)"
         cx="40"
         cy="20"
         stroke="none"
         id="ellipse135"
         d="M 80,20 C 80,31.045695 62.09139,40 40,40 17.90861,40 0,31.045695 0,20 0,8.954305 17.90861,0 40,0 62.09139,0 80,8.954305 80,20 z" />
    </g>
    <g
       stroke-linecap="butt"
       transform="translate(158,251)"
       fill-opacity="1"
       fill="black"
       text-rendering="geometricPrecision"
       font-family="'DejaVu Sans'"
       stroke-linejoin="round"
       stroke="black"
       stroke-opacity="1"
       stroke-miterlimit="0"
       id="g137">
      <ellipse
         rx="40"
         fill="none"
         ry="20"
         clip-path="url(#clipPath2)"
         cx="40"
         cy="20"
         id="ellipse139"
         d="M 80,20 C 80,31.045695 62.09139,40 40,40 17.90861,40 0,31.045695 0,20 0,8.954305 17.90861,0 40,0 62.09139,0 80,8.954305 80,20 z" />
    </g>
    <g
       transform="translate(158,251)"
       fill-opacity="1"
       fill="black"
       text-rendering="geometricPrecision"
       font-family="'DejaVu Sans'"
       stroke="black"
       stroke-opacity="1"
       id="g141">
      <text
         x="12"
         xml:space="preserve"
         y="24"
         clip-path="url(#clipPath3)"
         stroke="none"
         id="text143">Edit Item</text>
    </g>
    <g
       transform="translate(338,168)"
       fill-opacity="1"
       fill="white"
       text-rendering="geometricPrecision"
       font-family="'DejaVu Sans'"
       stroke="white"
       stroke-opacity="1"
       id="g145">
      <ellipse
         rx="43"
         ry="20"
         clip-path="url(#clipPath6)"
         cx="43"
         cy="20"
         stroke="none"
         id="ellipse147"
         d="M 86,20 C 86,31.045695 66.748244,40 43,40 19.251756,40 0,31.045695 0,20 0,8.954305 19.251756,0 43,0 66.748244,0 86,8.954305 86,20 z" />
    </g>
    <g
       stroke-linecap="butt"
       transform="translate(338,168)"
       fill-opacity="1"
       fill="black"
       text-rendering="geometricPrecision"
       font-family="'DejaVu Sans'"
       stroke-linejoin="round"
       stroke="black"
       stroke-opacity="1"
       stroke-miterlimit="0"
       id="g149">
      <ellipse
         rx="43"
         fill="none"
         ry="20"
         clip-path="url(#clipPath6)"
         cx="43"
         cy="20"
         id="ellipse151"
         d="M 86,20 C 86,31.045695 66.748244,40 43,40 19.251756,40 0,31.045695 0,20 0,8.954305 19.251756,0 43,0 66.748244,0 86,8.954305 86,20 z" />
    </g>
    <g
       transform="translate(338,168)"
       fill-opacity="1"
       fill="black"
       text-rendering="geometricPrecision"
       font-family="'DejaVu Sans'"
       stroke="black"
       stroke-opacity="1"
       id="g153">
      <text
         x="5"
         xml:space="preserve"
         y="24"
         clip-path="url(#clipPath7)"
         stroke="none"
         id="text155">Notify Model</text>
    </g>
    <g
       transform="translate(513,158)"
       fill-opacity="1"
       fill="white"
       text-rendering="geometricPrecision"
       font-family="'DejaVu Sans'"
       stroke="white"
       stroke-opacity="1"
       id="g157">
      <rect
         x="0"
         width="68"
         height="60"
         y="0"
         clip-path="url(#clipPath8)"
         stroke="none"
         id="rect159" />
    </g>
    <g
       stroke-linecap="butt"
       transform="translate(513,158)"
       fill-opacity="1"
       fill="black"
       text-rendering="geometricPrecision"
       font-family="'DejaVu Sans'"
       stroke-linejoin="round"
       stroke="black"
       stroke-opacity="1"
       stroke-miterlimit="0"
       id="g161">
      <rect
         fill="none"
         x="0"
         width="68"
         height="60"
         y="0"
         clip-path="url(#clipPath8)"
         id="rect163" />
      <circle
         fill="none"
         r="2"
         clip-path="url(#clipPath8)"
         cx="61"
         cy="5"
         id="circle165"
         d="m 63,5 c 0,1.1045695 -0.895431,2 -2,2 -1.104569,0 -2,-0.8954305 -2,-2 0,-1.1045695 0.895431,-2 2,-2 1.104569,0 2,0.8954305 2,2 z" />
      <line
         y2="9"
         fill="none"
         x1="58"
         clip-path="url(#clipPath8)"
         x2="64"
         y1="9"
         id="line167" />
      <line
         y2="12"
         fill="none"
         x1="61"
         clip-path="url(#clipPath8)"
         x2="61"
         y1="7"
         id="line169" />
      <line
         y2="15"
         fill="none"
         x1="61"
         clip-path="url(#clipPath8)"
         x2="58"
         y1="12"
         id="line171" />
      <line
         y2="15"
         fill="none"
         x1="61"
         clip-path="url(#clipPath8)"
         x2="64"
         y1="12"
         id="line173" />
    </g>
    <g
       transform="translate(513,158)"
       fill-opacity="1"
       fill="black"
       text-rendering="geometricPrecision"
       font-family="'DejaVu Sans'"
       stroke="black"
       stroke-opacity="1"
       id="g175">
      <text
         x="5"
         xml:space="preserve"
         y="34"
         clip-path="url(#clipPath9)"
         stroke="none"
         id="text177">ListModel</text>
    </g>
    <g
       transform="translate(328,334)"
       fill-opacity="1"
       fill="white"
       text-rendering="geometricPrecision"
       font-family="'DejaVu Sans'"
       stroke="white"
       stroke-opacity="1"
       id="g179">
      <ellipse
         rx="53.5"
         ry="20"
         clip-path="url(#clipPath10)"
         cx="53.5"
         cy="20"
         stroke="none"
         id="ellipse181"
         d="M 107,20 C 107,31.045695 83.047234,40 53.5,40 23.952766,40 0,31.045695 0,20 0,8.954305 23.952766,0 53.5,0 83.047234,0 107,8.954305 107,20 z" />
    </g>
    <g
       stroke-linecap="butt"
       transform="translate(328,334)"
       fill-opacity="1"
       fill="black"
       text-rendering="geometricPrecision"
       font-family="'DejaVu Sans'"
       stroke-linejoin="round"
       stroke="black"
       stroke-opacity="1"
       stroke-miterlimit="0"
       id="g183">
      <ellipse
         rx="53.5"
         fill="none"
         ry="20"
         clip-path="url(#clipPath10)"
         cx="53.5"
         cy="20"
         id="ellipse185"
         d="M 107,20 C 107,31.045695 83.047234,40 53.5,40 23.952766,40 0,31.045695 0,20 0,8.954305 23.952766,0 53.5,0 83.047234,0 107,8.954305 107,20 z" />
    </g>
    <g
       transform="translate(328,334)"
       fill-opacity="1"
       fill="black"
       text-rendering="geometricPrecision"
       font-family="'DejaVu Sans'"
       stroke="black"
       stroke-opacity="1"
       id="g187">
      <text
         x="5"
         xml:space="preserve"
         y="24"
         clip-path="url(#clipPath11)"
         stroke="none"
         id="text189">Add Undo Event</text>
    </g>
    <g
       transform="translate(500,314)"
       fill-opacity="1"
       fill="white"
       text-rendering="geometricPrecision"
       font-family="'DejaVu Sans'"
       stroke="white"
       stroke-opacity="1"
       id="g191">
      <rect
         x="0"
         width="94"
         height="60"
         y="0"
         clip-path="url(#clipPath12)"
         stroke="none"
         id="rect193" />
    </g>
    <g
       stroke-linecap="butt"
       transform="translate(500,314)"
       fill-opacity="1"
       fill="black"
       text-rendering="geometricPrecision"
       font-family="'DejaVu Sans'"
       stroke-linejoin="round"
       stroke="black"
       stroke-opacity="1"
       stroke-miterlimit="0"
       id="g195">
      <rect
         fill="none"
         x="0"
         width="94"
         height="60"
         y="0"
         clip-path="url(#clipPath12)"
         id="rect197" />
      <circle
         fill="none"
         r="2"
         clip-path="url(#clipPath12)"
         cx="87"
         cy="5"
         id="circle199"
         d="m 89,5 c 0,1.1045695 -0.895431,2 -2,2 -1.104569,0 -2,-0.8954305 -2,-2 0,-1.1045695 0.895431,-2 2,-2 1.104569,0 2,0.8954305 2,2 z" />
      <line
         y2="9"
         fill="none"
         x1="84"
         clip-path="url(#clipPath12)"
         x2="90"
         y1="9"
         id="line201" />
      <line
         y2="12"
         fill="none"
         x1="87"
         clip-path="url(#clipPath12)"
         x2="87"
         y1="7"
         id="line203" />
      <line
         y2="15"
         fill="none"
         x1="87"
         clip-path="url(#clipPath12)"
         x2="84"
         y1="12"
         id="line205" />
      <line
         y2="15"
         fill="none"
         x1="87"
         clip-path="url(#clipPath12)"
         x2="90"
         y1="12"
         id="line207" />
    </g>
    <g
       transform="translate(500,314)"
       fill-opacity="1"
       fill="black"
       text-rendering="geometricPrecision"
       font-family="'DejaVu Sans'"
       stroke="black"
       stroke-opacity="1"
       id="g209">
      <text
         x="3"
         xml:space="preserve"
         y="34"
         clip-path="url(#clipPath13)"
         stroke="none"
         id="text211">UndoManager</text>
    </g>
    <g
       transform="translate(152,2)"
       fill-opacity="1"
       fill="white"
       text-rendering="geometricPrecision"
       font-family="'DejaVu Sans'"
       stroke="white"
       stroke-opacity="1"
       id="g213">
      <ellipse
         rx="46.5"
         ry="20"
         clip-path="url(#clipPath14)"
         cx="46.5"
         cy="20"
         stroke="none"
         id="ellipse215"
         d="M 93,20 C 93,31.045695 72.181241,40 46.5,40 20.818759,40 0,31.045695 0,20 0,8.954305 20.818759,0 46.5,0 72.181241,0 93,8.954305 93,20 z" />
    </g>
    <g
       stroke-linecap="butt"
       transform="translate(152,2)"
       fill-opacity="1"
       fill="black"
       text-rendering="geometricPrecision"
       font-family="'DejaVu Sans'"
       stroke-linejoin="round"
       stroke="black"
       stroke-opacity="1"
       stroke-miterlimit="0"
       id="g217">
      <ellipse
         rx="46.5"
         fill="none"
         ry="20"
         clip-path="url(#clipPath14)"
         cx="46.5"
         cy="20"
         id="ellipse219"
         d="M 93,20 C 93,31.045695 72.181241,40 46.5,40 20.818759,40 0,31.045695 0,20 0,8.954305 20.818759,0 46.5,0 72.181241,0 93,8.954305 93,20 z" />
    </g>
    <g
       transform="translate(152,2)"
       fill-opacity="1"
       fill="black"
       text-rendering="geometricPrecision"
       font-family="'DejaVu Sans'"
       stroke="black"
       stroke-opacity="1"
       id="g221">
      <text
         x="5"
         xml:space="preserve"
         y="24"
         clip-path="url(#clipPath15)"
         stroke="none"
         id="text223">Present Items</text>
    </g>
    <g
       transform="translate(2,135)"
       fill-opacity="1"
       fill="black"
       text-rendering="geometricPrecision"
       font-family="'DejaVu Sans'"
       stroke="black"
       stroke-opacity="1"
       id="g225">
      <text
         x="9"
         xml:space="preserve"
         y="12"
         clip-path="url(#clipPath16)"
         stroke="none"
         id="text227">User</text>
    </g>
    <g
       font-size="11"
       stroke-linecap="butt"
       transform="translate(-9,55)"
       fill-opacity="1"
       fill="black"
       text-rendering="geometricPrecision"
       font-family="sans-serif"
       stroke-linejoin="round"
       stroke="black"
       stroke-opacity="1"
       id="g229">
      <line
         y2="50"
         fill="none"
         x1="50"
         clip-path="url(#clipPath17)"
         x2="172"
         y1="50"
         id="line231" />
    </g>
    <g
       font-size="11"
       stroke-linecap="butt"
       transform="translate(193,55)"
       fill-opacity="1"
       fill="black"
       text-rendering="geometricPrecision"
       font-family="sans-serif"
       stroke-linejoin="round"
       stroke="black"
       stroke-opacity="1"
       id="g233">
      <line
         y2="120"
         fill="none"
         x1="50"
         clip-path="url(#clipPath18)"
         x2="155"
         y1="50"
         id="line235" />
      <line
         y2="108"
         fill="none"
         x1="155"
         clip-path="url(#clipPath18)"
         x2="148"
         y1="120"
         id="line237" />
      <line
         y2="119"
         fill="none"
         x1="155"
         clip-path="url(#clipPath18)"
         x2="142"
         y1="120"
         id="line239" />
    </g>
    <g
       font-size="11"
       stroke-linecap="butt"
       transform="translate(374,139)"
       fill-opacity="1"
       fill="black"
       text-rendering="geometricPrecision"
       font-family="sans-serif"
       stroke-linejoin="round"
       stroke="black"
       stroke-opacity="1"
       id="g241">
      <line
         y2="50"
         fill="none"
         x1="50"
         clip-path="url(#clipPath19)"
         x2="138"
         y1="50"
         id="line243" />
      <line
         y2="44"
         fill="none"
         x1="138"
         clip-path="url(#clipPath19)"
         x2="126"
         y1="50"
         id="line245" />
      <line
         y2="56"
         fill="none"
         x1="138"
         clip-path="url(#clipPath19)"
         x2="126"
         y1="50"
         id="line247" />
    </g>
    <g
       font-size="11"
       stroke-linecap="butt"
       transform="translate(385,304)"
       fill-opacity="1"
       fill="black"
       text-rendering="geometricPrecision"
       font-family="sans-serif"
       stroke-linejoin="round"
       stroke="black"
       stroke-opacity="1"
       id="g249">
      <line
         y2="50"
         fill="none"
         x1="50"
         clip-path="url(#clipPath20)"
         x2="114"
         y1="50"
         id="line251" />
      <line
         y2="44"
         fill="none"
         x1="114"
         clip-path="url(#clipPath20)"
         x2="102"
         y1="50"
         id="line253" />
      <line
         y2="56"
         fill="none"
         x1="114"
         clip-path="url(#clipPath20)"
         x2="102"
         y1="50"
         id="line255" />
    </g>
    <g
       font-size="11"
       stroke-linecap="butt"
       transform="translate(331,158)"
       fill-opacity="1"
       fill="black"
       text-rendering="geometricPrecision"
       font-family="sans-serif"
       stroke-linejoin="round"
       stroke-dasharray="4"
       stroke="black"
       stroke-opacity="1"
       id="g257">
      <line
         y2="176"
         fill="none"
         x1="50"
         clip-path="url(#clipPath21)"
         x2="50"
         y1="50"
         id="line259" />
      <line
         clip-path="url(#clipPath21)"
         fill="none"
         x1="50"
         x2="56"
         y1="176"
         y2="164"
         stroke-dasharray="none"
         id="line261" />
      <line
         clip-path="url(#clipPath21)"
         fill="none"
         x1="50"
         x2="44"
         y1="176"
         y2="164"
         stroke-dasharray="none"
         id="line263" />
    </g>
    <g
       font-size="11"
       stroke-linecap="butt"
       transform="translate(195,-28)"
       fill-opacity="1"
       fill="black"
       text-rendering="geometricPrecision"
       font-family="sans-serif"
       stroke-linejoin="round"
       stroke="black"
       stroke-opacity="1"
       id="g265">
      <line
         y2="50"
         fill="none"
         x1="317"
         clip-path="url(#clipPath22)"
         x2="50"
         y1="186"
         id="line267" />
      <line
         y2="60"
         fill="none"
         x1="50"
         clip-path="url(#clipPath22)"
         x2="57"
         y1="50"
         id="line269" />
      <line
         y2="49"
         fill="none"
         x1="50"
         clip-path="url(#clipPath22)"
         x2="63"
         y1="50"
         id="line271" />
    </g>
    <g
       font-size="11"
       stroke-linecap="butt"
       transform="translate(-9,-28)"
       fill-opacity="1"
       fill="black"
       text-rendering="geometricPrecision"
       font-family="sans-serif"
       stroke-linejoin="round"
       stroke="black"
       stroke-opacity="1"
       id="g273">
      <line
         y2="103"
         fill="none"
         x1="161"
         clip-path="url(#clipPath23)"
         x2="50"
         y1="50"
         id="line275" />
      <line
         y2="104"
         fill="none"
         x1="50"
         clip-path="url(#clipPath23)"
         x2="62"
         y1="103"
         id="line277" />
      <line
         y2="93"
         fill="none"
         x1="50"
         clip-path="url(#clipPath23)"
         x2="57"
         y1="103"
         id="line279" />
    </g>
    <g
       font-size="11"
       stroke-linecap="butt"
       transform="translate(153,75)"
       fill-opacity="1"
       fill="black"
       text-rendering="geometricPrecision"
       font-family="sans-serif"
       stroke-linejoin="round"
       stroke-dasharray="4"
       stroke="black"
       stroke-opacity="1"
       id="g281">
      <line
         y2="50"
         fill="none"
         x1="50"
         clip-path="url(#clipPath24)"
         x2="50"
         y1="93"
         id="line283" />
      <line
         clip-path="url(#clipPath24)"
         fill="none"
         x1="50"
         x2="44"
         y1="50"
         y2="62"
         stroke-dasharray="none"
         id="line285" />
      <line
         clip-path="url(#clipPath24)"
         fill="none"
         x1="50"
         x2="56"
         y1="50"
         y2="62"
         stroke-dasharray="none"
         id="line287" />
    </g>
    <g
       font-size="11"
       stroke-linecap="butt"
       transform="translate(42,68)"
       fill-opacity="1"
       fill="black"
       text-rendering="geometricPrecision"
       font-family="sans-serif"
       stroke-linejoin="round"
       stroke-dasharray="4"
       stroke="black"
       stroke-opacity="1"
       id="g289">
      <line
         y2="121"
         fill="none"
         x1="124"
         clip-path="url(#clipPath25)"
         x2="50"
         y1="191"
         id="line291" />
      <line
         y2="50"
         fill="none"
         x1="50"
         clip-path="url(#clipPath25)"
         x2="129"
         y1="121"
         id="line293" />
      <line
         clip-path="url(#clipPath25)"
         fill="none"
         x1="129"
         x2="116"
         y1="50"
         y2="52"
         stroke-dasharray="none"
         id="line295" />
      <line
         clip-path="url(#clipPath25)"
         fill="none"
         x1="129"
         x2="124"
         y1="50"
         y2="61"
         stroke-dasharray="none"
         id="line297" />
    </g>
    <g
       font-size="11"
       transform="translate(62,250)"
       fill-opacity="1"
       fill="black"
       text-rendering="geometricPrecision"
       font-family="sans-serif"
       stroke="black"
       stroke-opacity="1"
       id="g299">
      <text
         x="9"
         xml:space="preserve"
         y="11"
         clip-path="url(#clipPath26)"
         stroke="none"
         id="text301">&lt;&lt;Extend&gt;&gt;</text>
    </g>
    <g
       font-size="11"
       transform="translate(199,152)"
       fill-opacity="1"
       fill="black"
       text-rendering="geometricPrecision"
       font-family="sans-serif"
       stroke="black"
       stroke-opacity="1"
       id="g303">
      <text
         x="9"
         xml:space="preserve"
         y="11"
         clip-path="url(#clipPath26)"
         stroke="none"
         id="text305">&lt;&lt;Extend&gt;&gt;</text>
    </g>
    <g
       font-size="11"
       transform="translate(376,265)"
       fill-opacity="1"
       fill="black"
       text-rendering="geometricPrecision"
       font-family="sans-serif"
       stroke="black"
       stroke-opacity="1"
       id="g307">
      <text
         x="10"
         xml:space="preserve"
         y="11"
         clip-path="url(#clipPath27)"
         stroke="none"
         id="text309">&lt;&lt;Include&gt;&gt;</text>
    </g>
  </g>
</svg>
